<?xml version="1.0" encoding="UTF-8" standalone="no"?>
<svg
   xmlns:dc="http://purl.org/dc/elements/1.1/"
   xmlns:cc="http://creativecommons.org/ns#"
   xmlns:rdf="http://www.w3.org/1999/02/22-rdf-syntax-ns#"
   xmlns:svg="http://www.w3.org/2000/svg"
   xmlns="http://www.w3.org/2000/svg"
   xmlns:sodipodi="http://sodipodi.sourceforge.net/DTD/sodipodi-0.dtd"
   xmlns:inkscape="http://www.inkscape.org/namespaces/inkscape"
   viewBox="0 0 16 16"
   height="16"
   width="16"
   version="1.1"
   id="svg10"
   sodipodi:docname="aerodrome-11.svg"
   inkscape:version="0.92.2 5c3e80d, 2017-08-06">
  <metadata
     id="metadata16">
    <rdf:RDF>
      <cc:Work
         rdf:about="">
        <dc:format>image/svg+xml</dc:format>
        <dc:type
           rdf:resource="http://purl.org/dc/dcmitype/StillImage" />
      </cc:Work>
    </rdf:RDF>
  </metadata>
  <defs
     id="defs14" />
  <sodipodi:namedview
     pagecolor="#ffffff"
     bordercolor="#666666"
     borderopacity="1"
     objecttolerance="10"
     gridtolerance="10"
     guidetolerance="10"
     inkscape:pageopacity="0"
     inkscape:pageshadow="2"
     inkscape:window-width="3840"
     inkscape:window-height="2031"
     id="namedview12"
     showgrid="false"
     inkscape:zoom="14.75"
     inkscape:cx="-6.2372881"
     inkscape:cy="8"
     inkscape:window-x="0"
     inkscape:window-y="55"
     inkscape:window-maximized="1"
     inkscape:current-layer="svg10" />
  <title
     id="title2">airport-11.svg</title>
  <rect
     fill="none"
     x="0"
     y="0"
     width="16"
     height="16"
     id="rect4" />
  <path
     fill="#eee"
     transform="translate(2 2)"
     d="M6.5,6.4V6L11,6.5V5L6.5,3.2V1.5c0-1-0.5-1.5-1-1.5s-1,0.5-1,1.5v1.7L0,5v1.4L4.5,6v0.4v1.1v1.8L3,10v1l2.5-0.5L8,11v-1  L6.5,9.2V7.5V6.4z"
     style="stroke-linejoin:round;stroke-miterlimit:4;"
     stroke="#eee"
     stroke-width="1"
     id="path6" />
  <path
     fill="#666"
     transform="translate(2 2)"
     d="M6.5,6.4V6L11,6.5V5L6.5,3.2V1.5c0-1-0.5-1.5-1-1.5s-1,0.5-1,1.5v1.7L0,5v1.4L4.5,6v0.4v1.1v1.8L3,10v1l2.5-0.5L8,11v-1  L6.5,9.2V7.5V6.4z"
     id="path8"
     style="fill:#888888;fill-opacity:1" />
</svg>
