<?xml version="1.0" encoding="UTF-8" standalone="no"?>
<svg
   xmlns:dc="http://purl.org/dc/elements/1.1/"
   xmlns:cc="http://creativecommons.org/ns#"
   xmlns:rdf="http://www.w3.org/1999/02/22-rdf-syntax-ns#"
   xmlns:svg="http://www.w3.org/2000/svg"
   xmlns="http://www.w3.org/2000/svg"
   xmlns:sodipodi="http://sodipodi.sourceforge.net/DTD/sodipodi-0.dtd"
   xmlns:inkscape="http://www.inkscape.org/namespaces/inkscape"
   viewBox="0 0 21 21"
   height="21"
   width="21"
   version="1.1"
   id="svg12"
   sodipodi:docname="bus_stop-15.svg"
   inkscape:version="0.92.2 5c3e80d, 2017-08-06">
  <metadata
     id="metadata18">
    <rdf:RDF>
      <cc:Work
         rdf:about="">
        <dc:format>image/svg+xml</dc:format>
        <dc:type
           rdf:resource="http://purl.org/dc/dcmitype/StillImage" />
        <dc:title>bus-15.svg</dc:title>
      </cc:Work>
    </rdf:RDF>
  </metadata>
  <defs
     id="defs16" />
  <sodipodi:namedview
     pagecolor="#ffffff"
     bordercolor="#666666"
     borderopacity="1"
     objecttolerance="10"
     gridtolerance="10"
     guidetolerance="10"
     inkscape:pageopacity="0"
     inkscape:pageshadow="2"
     inkscape:window-width="3840"
     inkscape:window-height="2031"
     id="namedview14"
     showgrid="true"
     inkscape:zoom="44.952381"
     inkscape:cx="17.856038"
     inkscape:cy="10.005812"
     inkscape:window-x="0"
     inkscape:window-y="55"
     inkscape:window-maximized="1"
     inkscape:current-layer="svg12">
    <inkscape:grid
       type="xygrid"
       id="grid828" />
  </sodipodi:namedview>
  <title
     id="title2">bus-15.svg</title>
  <rect
     fill="none"
     x="0"
     y="0"
     width="21"
     height="21"
     id="rect4" />
  <rect
     x="1"
     y="1"
     rx="10"
     ry="10"
     width="19"
     height="19"
     stroke="#222"
     style="stroke-linejoin:round;stroke-miterlimit:4;"
     fill="#222"
     stroke-width="1"
     id="rect6" />
  <rect
     x="1"
     y="1"
     width="19"
     height="19"
     rx="10"
     ry="10"
     fill="#eee"
     id="rect8"
     style="fill:#ffffff;fill-opacity:1" />
  <path
     transform="translate(3,3)"
     d="M 6,0.93432203 C 4.6365169,0.91647082 3,1.677622 3,3.680422 V 8.1992 11.288136 c 0,0 0,1 1,1 v 1 c 0,0 0,1 1,1 1,0 1,-1 1,-1 v -1 l 2.9978809,0.04449 v 1 c 0,0 0,1 1,1 1.0000001,0 1.0000001,-1 1.0000001,-1 v -1 c 0,0 1,0 1,-1 V 3.7249135 c 0,-2.0454999 -1.236117,-2.72824872 -2.5996001,-2.74609994 z M 6.25,2.434322 8.7478814,2.478813 c 0.1384781,0.00247 0.2499995,0.1115 0.2499995,0.25 0,0.1385 -0.1115215,0.2524665 -0.2499995,0.25 L 6.25,2.934322 C 6.111522,2.9318555 6,2.822822 6,2.684322 c 0,-0.1385 0.111522,-0.2524665 0.25,-0.25 z m -1.25,1.5 4.9978809,0.044491 c 0.9999601,0.0089 1.0000001,0.9668 1.0000001,0.9668 v 2.098878 c 0,0 -4e-5,1.0089018 -1.0000001,1 L 5,8 C 4.0000396,7.9910983 4,7 4,7 V 4.934322 c 0,0 3.96e-5,-1.0089017 1,-1 z m 0,5.3538136 c 0.5523,0 1,0.4477 1,1.0000004 0,0.5523 -0.4477,1 -1,1 -0.5523,0 -1,-0.4477 -1,-1 C 4,9.7358356 4.4477,9.2881356 5,9.2881356 Z m 4.9978809,0.04449 c 0.5523001,0 1.0000001,0.4477 1.0000001,1.0000004 0,0.5523 -0.4477,1 -1.0000001,1 -0.5523,0 -1,-0.4477 -1,-1 0,-0.5523004 0.4477,-1.0000004 1,-1.0000004 z"
     id="path10"
     style="fill:#666666;fill-opacity:1"
     inkscape:connector-curvature="0"
     sodipodi:nodetypes="ssccccsccccsccsssssssssssssccssccsssssssssss" />
</svg>
