<?xml version="1.0" encoding="UTF-8" standalone="no"?>
<svg
   xmlns:dc="http://purl.org/dc/elements/1.1/"
   xmlns:cc="http://creativecommons.org/ns#"
   xmlns:rdf="http://www.w3.org/1999/02/22-rdf-syntax-ns#"
   xmlns:svg="http://www.w3.org/2000/svg"
   xmlns="http://www.w3.org/2000/svg"
   xmlns:sodipodi="http://sodipodi.sourceforge.net/DTD/sodipodi-0.dtd"
   xmlns:inkscape="http://www.inkscape.org/namespaces/inkscape"
   viewBox="0 0 16 16"
   height="16"
   width="16"
   version="1.1"
   id="svg10"
   sodipodi:docname="school-11.svg"
   inkscape:version="0.92.2 2405546, 2018-03-11">
  <metadata
     id="metadata16">
    <rdf:RDF>
      <cc:Work
         rdf:about="">
        <dc:format>image/svg+xml</dc:format>
        <dc:type
           rdf:resource="http://purl.org/dc/dcmitype/StillImage" />
      </cc:Work>
    </rdf:RDF>
  </metadata>
  <defs
     id="defs14" />
  <sodipodi:namedview
     pagecolor="#ffffff"
     bordercolor="#666666"
     borderopacity="1"
     objecttolerance="10"
     gridtolerance="10"
     guidetolerance="10"
     inkscape:pageopacity="0"
     inkscape:pageshadow="2"
     inkscape:window-width="3840"
     inkscape:window-height="2031"
     id="namedview12"
     showgrid="false"
     inkscape:zoom="41.7193"
     inkscape:cx="4.3475506"
     inkscape:cy="9.3532101"
     inkscape:window-x="0"
     inkscape:window-y="55"
     inkscape:window-maximized="1"
     inkscape:current-layer="svg10" />
  <title
     id="title2">school-11.svg</title>
  <rect
     fill="none"
     x="0"
     y="0"
     width="16"
     height="16"
     id="rect4" />
  <g
     style="display:inline"
     id="school-12"
     transform="translate(-280.20984,-1048.642)">
    <g
       id="g21610">
      <path
         style="color:#000000;display:inline;overflow:visible;visibility:visible;opacity:1;fill:none;stroke:#eeeeee;stroke-width:2;stroke-linecap:round;stroke-linejoin:round;stroke-miterlimit:4;stroke-dasharray:none;stroke-dashoffset:0;stroke-opacity:1;marker:none;enable-background:accumulate"
         id="path10199"
         inkscape:connector-curvature="0"
         d="m 289,1051.8622 c -0.55228,0 -1,0.4477 -1,1 0,0.5523 0.44772,1 1,1 0.55228,0 1,-0.4477 1,-1 0,-0.5523 -0.44772,-1 -1,-1 z m -4,1 c -0.55228,0 -1,0.4477 -1,1 0,0.5523 0.44772,1 1,1 0.55228,0 1,-0.4477 1,-1 0,-0.5523 -0.44772,-1 -1,-1 z m 4.5,1.5 H 289 l -2,1 v 1 l 2,-1 v 1 1.5625 l -1,3.4375 h 1 l 1,-3.5 c 0,0 0.25,1.4999 1.25,1.5 0.60093,10e-5 1.41667,0 1.75,0 v -0.75 c -0.25,0 -1.25,-10e-5 -1.5,0 -0.53359,2e-4 -0.5,-0.8012 -0.5,-1.25 0,-0.7501 -0.5,-2 -0.5,-2 l 1.5,0.9375 c 0.4532,0.3021 0.84576,-0.2329 0.40625,-0.5625 l -1.65625,-1.125 c -0.30176,-0.2149 -0.39841,-0.2499 -0.75,-0.25 z m -4.75,1 c -0.25,0 -0.36824,0.1183 -0.5,0.25 l -1.0625,1.0625 c -0.1368,0.1368 -0.1875,0.2593 -0.1875,0.4375 0,0.25 0.38216,0.3678 0.59375,0.1563 l 0.90625,-0.9063 h 0.5 v 1 l -1,2.75 c -0.20218,0.556 0.57214,0.7243 0.75,0.25 l 0.50463,-1.3 H 288 v -0.7 h -1.5 v -2 c 0,-0.5 -0.5,-1 -1,-1 z" />
      <path
         style="color:#000000;display:inline;overflow:visible;visibility:visible;fill:#666666;fill-opacity:1;fill-rule:nonzero;stroke:none;stroke-width:2;marker:none;enable-background:accumulate"
         id="path17501"
         inkscape:connector-curvature="0"
         d="m 289,1051.8622 c -0.55228,0 -1,0.4477 -1,1 0,0.5523 0.44772,1 1,1 0.55228,0 1,-0.4477 1,-1 0,-0.5523 -0.44772,-1 -1,-1 z m -4,1 c -0.55228,0 -1,0.4477 -1,1 0,0.5523 0.44772,1 1,1 0.55228,0 1,-0.4477 1,-1 0,-0.5523 -0.44772,-1 -1,-1 z m 4.5,1.5 H 289 l -2,1 v 1 l 2,-1 v 1 1.5625 l -1,3.4375 h 1 l 1,-3.5 c 0,0 0.25,1.4999 1.25,1.5 0.60093,10e-5 1.41667,0 1.75,0 v -0.75 c -0.25,0 -1.25,-10e-5 -1.5,0 -0.53359,2e-4 -0.5,-0.8012 -0.5,-1.25 0,-0.7501 -0.5,-2 -0.5,-2 l 1.5,0.9375 c 0.4532,0.3021 0.84576,-0.2329 0.40625,-0.5625 l -1.65625,-1.125 c -0.30176,-0.2149 -0.39841,-0.2499 -0.75,-0.25 z m -4.75,1 c -0.25,0 -0.36824,0.1183 -0.5,0.25 l -1.0625,1.0625 c -0.1368,0.1368 -0.1875,0.2593 -0.1875,0.4375 0,0.25 0.38216,0.3678 0.59375,0.1563 l 0.90625,-0.9063 h 0.5 v 1 l -1,2.75 c -0.20218,0.556 0.57214,0.7243 0.75,0.25 l 0.50463,-1.3 H 288 v -0.7 h -1.5 v -2 c 0,-0.5 -0.5,-1 -1,-1 z" />
    </g>
  </g>
</svg>
