<?xml version="1.0" encoding="UTF-8" standalone="no"?>
<svg
   xmlns:dc="http://purl.org/dc/elements/1.1/"
   xmlns:cc="http://creativecommons.org/ns#"
   xmlns:rdf="http://www.w3.org/1999/02/22-rdf-syntax-ns#"
   xmlns:svg="http://www.w3.org/2000/svg"
   xmlns="http://www.w3.org/2000/svg"
   xmlns:sodipodi="http://sodipodi.sourceforge.net/DTD/sodipodi-0.dtd"
   xmlns:inkscape="http://www.inkscape.org/namespaces/inkscape"
   viewBox="0 0 17 17"
   height="17"
   width="17"
   version="1.1"
   id="svg12"
   sodipodi:docname="rail-metro-11.svg"
   inkscape:version="0.92.2 5c3e80d, 2017-08-06">
  <metadata
     id="metadata18">
    <rdf:RDF>
      <cc:Work
         rdf:about="">
        <dc:format>image/svg+xml</dc:format>
        <dc:type
           rdf:resource="http://purl.org/dc/dcmitype/StillImage" />
      </cc:Work>
    </rdf:RDF>
  </metadata>
  <defs
     id="defs16" />
  <sodipodi:namedview
     pagecolor="#ffffff"
     bordercolor="#666666"
     borderopacity="1"
     objecttolerance="10"
     gridtolerance="10"
     guidetolerance="10"
     inkscape:pageopacity="0"
     inkscape:pageshadow="2"
     inkscape:window-width="3840"
     inkscape:window-height="2031"
     id="namedview14"
     showgrid="false"
     inkscape:zoom="13.882353"
     inkscape:cx="-6.5550847"
     inkscape:cy="8.5"
     inkscape:window-x="0"
     inkscape:window-y="55"
     inkscape:window-maximized="1"
     inkscape:current-layer="svg12" />
  <title
     id="title2">rail-metro-11.svg</title>
  <rect
     fill="none"
     x="0"
     y="0"
     width="17"
     height="17"
     id="rect4" />
  <rect
     x="1"
     y="1"
     rx="8"
     ry="8"
     width="15"
     height="15"
     stroke="#222"
     style="stroke-linejoin:round;stroke-miterlimit:4;"
     fill="#222"
     stroke-width="1"
     id="rect6" />
  <rect
     x="1"
     y="1"
     width="15"
     height="15"
     rx="8"
     ry="8"
     fill="#eee"
     id="rect8"
     style="fill:#ffffff;fill-opacity:1" />
  <path
     fill="#222"
     transform="translate(3 3)"
     d="M3.5,0C3,0,3,0.5,3,0.5L2,5v1c0,1.0244,1,1,1,1h5c0,0,1,0,1-1V5L8,0.5C8,0.5,8,0,7.5,0H3.5z M4,1h3l0.5,3h-4  L4,1z M3.5,5C3.7761,5,4,5.2239,4,5.5S3.7761,6,3.5,6S3,5.7761,3,5.5S3.2239,5,3.5,5z M5.25,5h0.5C5.8885,5,6,5.1115,6,5.25  S5.8885,5.5,5.75,5.5h-0.5C5.1115,5.5,5,5.3885,5,5.25S5.1115,5,5.25,5z M7.5,5C7.7761,5,8,5.2239,8,5.5S7.7761,6,7.5,6  S7,5.7761,7,5.5S7.2239,5,7.5,5z M3,8l-1,3h1.5l0.334-1h3.332L7.5,11H9L8,8H6.5l0.334,1H4.166L4.5,8H3z"
     id="path10"
     style="fill:#666666;fill-opacity:1" />
</svg>
