<?xml version="1.0" encoding="UTF-8" standalone="no"?>
<svg
   xmlns:dc="http://purl.org/dc/elements/1.1/"
   xmlns:cc="http://creativecommons.org/ns#"
   xmlns:rdf="http://www.w3.org/1999/02/22-rdf-syntax-ns#"
   xmlns:svg="http://www.w3.org/2000/svg"
   xmlns="http://www.w3.org/2000/svg"
   xmlns:sodipodi="http://sodipodi.sourceforge.net/DTD/sodipodi-0.dtd"
   xmlns:inkscape="http://www.inkscape.org/namespaces/inkscape"
   viewBox="0 0 21 21"
   height="21"
   width="21"
   version="1.1"
   id="svg12"
   sodipodi:docname="rail-metro-15.svg"
   inkscape:version="0.92.2 5c3e80d, 2017-08-06">
  <metadata
     id="metadata18">
    <rdf:RDF>
      <cc:Work
         rdf:about="">
        <dc:format>image/svg+xml</dc:format>
        <dc:type
           rdf:resource="http://purl.org/dc/dcmitype/StillImage" />
        <dc:title>rail-metro-15.svg</dc:title>
      </cc:Work>
    </rdf:RDF>
  </metadata>
  <defs
     id="defs16" />
  <sodipodi:namedview
     pagecolor="#ffffff"
     bordercolor="#666666"
     borderopacity="1"
     objecttolerance="10"
     gridtolerance="10"
     guidetolerance="10"
     inkscape:pageopacity="0"
     inkscape:pageshadow="2"
     inkscape:window-width="3840"
     inkscape:window-height="2031"
     id="namedview14"
     showgrid="true"
     inkscape:zoom="44.952381"
     inkscape:cx="10.691271"
     inkscape:cy="10.746451"
     inkscape:window-x="0"
     inkscape:window-y="55"
     inkscape:window-maximized="1"
     inkscape:current-layer="svg12">
    <inkscape:grid
       type="xygrid"
       id="grid828" />
  </sodipodi:namedview>
  <title
     id="title2">rail-metro-15.svg</title>
  <rect
     fill="none"
     x="0"
     y="0"
     width="21"
     height="21"
     id="rect4" />
  <rect
     x="1"
     y="1"
     rx="10"
     ry="10"
     width="19"
     height="19"
     stroke="#222"
     style="stroke-linejoin:round;stroke-miterlimit:4;"
     fill="#222"
     stroke-width="1"
     id="rect6" />
  <rect
     x="1"
     y="1"
     width="19"
     height="19"
     rx="10"
     ry="10"
     fill="#eee"
     id="rect8"
     style="fill:#ffffff;fill-opacity:1" />
  <path
     transform="translate(3,3)"
     d="m 5.5444915,1 c 0,0 -0.75,0 -1,1 L 3,6.5 V 10 c 0,1 1,1 1,1 h 7 c 0,0 1,0 1,-1 V 6.5 L 10.544492,2 C 10.271792,1 9.5444915,1 9.5444915,1 Z m 1,1.5 h 2 c 0,0 0.5357,0 0.75,1 L 10,6 C 10.2146,7.0017 9,7 9,7 H 6 C 6,7 4.7854,7.0017 5,6 L 5.7944915,3.5 c 0.2143,-1 0.75,-1 0.75,-1 z M 5,8 C 5.5523,8 6,8.4477 6,9 6,9.5523 5.5523,10 5,10 4.4477,10 4,9.5523 4,9 4,8.4477 4.4477,8 5,8 Z m 1.75,0 h 1.5 C 8.3885,8 8.5,8.1115 8.5,8.25 8.5,8.3885 8.3885,8.5 8.25,8.5 H 6.75 C 6.6115,8.5 6.5,8.3885 6.5,8.25 6.5,8.1115 6.6115,8 6.75,8 Z M 10,8 c 0.5523,0 1,0.4477 1,1 0,0.5523 -0.4477,1 -1,1 C 9.4477,10 9,9.5523 9,9 9,8.4477 9.4477,8 10,8 Z m -6,5 h 7 L 10,12 H 5 Z"
     id="path10"
     style="fill:#66666f;fill-opacity:0.94117647"
     inkscape:connector-curvature="0"
     sodipodi:nodetypes="cccsccscccccccccccccsssssssssssssssssccccc" />
</svg>
