<?xml version="1.0" encoding="UTF-8" standalone="no"?>
<svg
   xmlns:dc="http://purl.org/dc/elements/1.1/"
   xmlns:cc="http://creativecommons.org/ns#"
   xmlns:rdf="http://www.w3.org/1999/02/22-rdf-syntax-ns#"
   xmlns:svg="http://www.w3.org/2000/svg"
   xmlns="http://www.w3.org/2000/svg"
   xmlns:sodipodi="http://sodipodi.sourceforge.net/DTD/sodipodi-0.dtd"
   xmlns:inkscape="http://www.inkscape.org/namespaces/inkscape"
   viewBox="0 0 20 20"
   height="20"
   width="20"
   version="1.1"
   id="svg10"
   sodipodi:docname="townhall-15.svg"
   inkscape:version="0.92.2 5c3e80d, 2017-08-06">
  <metadata
     id="metadata16">
    <rdf:RDF>
      <cc:Work
         rdf:about="">
        <dc:format>image/svg+xml</dc:format>
        <dc:type
           rdf:resource="http://purl.org/dc/dcmitype/StillImage" />
      </cc:Work>
    </rdf:RDF>
  </metadata>
  <defs
     id="defs14" />
  <sodipodi:namedview
     pagecolor="#ffffff"
     bordercolor="#666666"
     borderopacity="1"
     objecttolerance="10"
     gridtolerance="10"
     guidetolerance="10"
     inkscape:pageopacity="0"
     inkscape:pageshadow="2"
     inkscape:window-width="3840"
     inkscape:window-height="2031"
     id="namedview12"
     showgrid="false"
     inkscape:zoom="11.8"
     inkscape:cx="-7.7966102"
     inkscape:cy="10"
     inkscape:window-x="0"
     inkscape:window-y="55"
     inkscape:window-maximized="1"
     inkscape:current-layer="svg10" />
  <title
     id="title2">town-hall-15.svg</title>
  <rect
     fill="none"
     x="0"
     y="0"
     width="20"
     height="20"
     id="rect4" />
  <path
     fill="#eee"
     transform="translate(2 2)"
     d="M7.5,0L1,3.4453V4h13V3.4453L7.5,0z M2,5v5l-1,1.5547V13h13v-1.4453L13,10V5H2z M4,6h1v5.5H4V6z M7,6h1v5.5H7  V6z M10,6h1v5.5h-1V6z"
     style="stroke-linejoin:round;stroke-miterlimit:4;"
     stroke="#eee"
     stroke-width="1"
     id="path6" />
  <path
     fill="#222"
     transform="translate(2 2)"
     d="M7.5,0L1,3.4453V4h13V3.4453L7.5,0z M2,5v5l-1,1.5547V13h13v-1.4453L13,10V5H2z M4,6h1v5.5H4V6z M7,6h1v5.5H7  V6z M10,6h1v5.5h-1V6z"
     id="path8"
     style="fill:#666666;fill-opacity:1" />
</svg>
